<?xml version="1.0" standalone="no"?>
<!DOCTYPE svg PUBLIC "-//W3C//DTD SVG 20010904//EN"
 "http://www.w3.org/TR/2001/REC-SVG-20010904/DTD/svg10.dtd">
<svg version="1.0" xmlns="http://www.w3.org/2000/svg"
 width="260.000000pt" height="260.000000pt" viewBox="0 0 260.000000 260.000000"
 preserveAspectRatio="xMidYMid meet">
<metadata>
Created by potrace 1.14, written by Peter Selinger 2001-2017
</metadata>
<g transform="translate(0.000000,260.000000) scale(0.100000,-0.100000)"
fill="#000000" stroke="none">
<path d="M1250 2451 c0 -4 -12 -7 -27 -7 -47 0 -160 -23 -246 -50 -101 -32
-212 -86 -306 -149 -79 -53 -251 -212 -251 -232 0 -7 -4 -13 -9 -13 -5 0 -20
-17 -32 -37 -13 -21 -28 -43 -35 -50 -31 -32 -131 -253 -149 -330 -3 -10 -9
-36 -15 -58 -24 -95 -32 -295 -16 -424 8 -66 45 -205 72 -269 8 -20 15 -38 15
-39 -2 -21 154 -268 184 -293 11 -9 11 -18 3 -43 -6 -18 -14 -34 -18 -37 -12
-8 -40 -68 -40 -85 0 -8 -4 -15 -9 -15 -5 0 -12 -8 -15 -17 -11 -31 -35 -68
-54 -83 -10 -8 -35 -44 -55 -80 -20 -36 -50 -80 -67 -99 -16 -18 -30 -35 -30
-37 0 -1 450 -2 1000 -2 926 0 1000 1 1001 16 5 71 -4 190 -19 247 -19 72 -9
120 32 162 103 107 170 200 229 318 34 68 74 175 84 225 8 43 11 55 14 55 1 0
3 11 5 25 1 14 6 51 11 82 13 80 7 259 -11 348 -23 111 -22 109 -55 199 -83
228 -242 429 -448 569 -140 95 -321 165 -482 187 -25 3 -48 8 -53 11 -12 8
-208 12 -208 5z"/>
</g>
</svg>
